<svg width="1200" height="940" xmlns="http://www.w3.org/2000/svg" font-family="Arial, sans-serif">
<rect width="1200" height="880" fill="white"/>

<!-- TITULO -->
<text x="355" y="34" text-anchor="middle" font-size="16" font-weight="bold" fill="#1A1A2E">Laborat&#xF3;rio de Ciberseguran&#xE7;a e Privacidade</text>

<!-- PAREDES -->
<line x1="55"  y1="68"  x2="605" y2="68"  stroke="#1A1A2E" stroke-width="14" stroke-linecap="square"/>
<line x1="605" y1="68"  x2="605" y2="798" stroke="#1A1A2E" stroke-width="14" stroke-linecap="square"/>
<line x1="55"  y1="68"  x2="55"  y2="798" stroke="#1A1A2E" stroke-width="14" stroke-linecap="square"/>
<line x1="55"  y1="798" x2="240" y2="798" stroke="#1A1A2E" stroke-width="14" stroke-linecap="square"/>
<line x1="340" y1="798" x2="605" y2="798" stroke="#1A1A2E" stroke-width="14" stroke-linecap="square"/>

<!-- PISO -->
<rect x="62" y="75" width="536" height="716" fill="#F7F7F7"/>

<!-- PORTA -->
<path d="M 240,798 A 100,100 0 0 0 340,798" stroke="#888" stroke-width="1.5" fill="none"/>
<line x1="240" y1="790" x2="340" y2="790" stroke="#CCC" stroke-width="1"/>
<text x="290" y="818" text-anchor="middle" font-size="9" fill="#999">Entrada (1,0 m)</text>

<!-- ZONA SANDBOX -->
<rect x="140" y="560" width="330" height="190" fill="#FFE8E8" stroke="#E74C3C" stroke-width="2.5" stroke-dasharray="10,6" rx="5"/>

<!-- CANALETA PERIMETRAL (dashed red) -->
<rect x="80" y="88" width="500" height="692" fill="none" stroke="#E53935" stroke-width="3" stroke-dasharray="12,8" rx="2"/>

<!-- TOMADAS (Cat6A faceplates) ao longo da parede norte -->
<rect x="92"  y="90" width="16" height="22" fill="#DEB887" rx="2" stroke="#B8860B" stroke-width="1"/>
<rect x="118" y="90" width="16" height="22" fill="#DEB887" rx="2" stroke="#B8860B" stroke-width="1"/>
<rect x="200" y="90" width="16" height="22" fill="#DEB887" rx="2" stroke="#B8860B" stroke-width="1"/>
<rect x="226" y="90" width="16" height="22" fill="#DEB887" rx="2" stroke="#B8860B" stroke-width="1"/>
<rect x="310" y="90" width="16" height="22" fill="#DEB887" rx="2" stroke="#B8860B" stroke-width="1"/>
<rect x="336" y="90" width="16" height="22" fill="#DEB887" rx="2" stroke="#B8860B" stroke-width="1"/>
<!-- Tomadas parede sul (sandbox) -->
<rect x="155" y="756" width="16" height="22" fill="#DEB887" rx="2" stroke="#B8860B" stroke-width="1"/>
<rect x="340" y="756" width="16" height="22" fill="#DEB887" rx="2" stroke="#B8860B" stroke-width="1"/>

<!-- CAMERAS DE SEGURANCA -->
<!-- Cam NW -->
<rect x="66" y="76" width="30" height="24" fill="#27AE60" stroke="#1A7A40" stroke-width="1.5"/>
<!-- Cam NE -->
<rect x="504" y="76" width="30" height="24" fill="#27AE60" stroke="#1A7A40" stroke-width="1.5"/>

<!-- CONTROLE DE ACESSO (porta) -->
<rect x="230" y="768" width="26" height="22" fill="#E74C3C" stroke="#A93226" stroke-width="1.5"/>
<rect x="237" y="774" width="12" height="10" fill="#222"/>

<!-- BANCADAS (8 workstations, blue) -->
<!-- Linha 1: WK1-WK4 -->
<g transform="translate(85,120)">
  <rect width="72" height="56" fill="#5B9BD5" rx="5" stroke="#2E75B6" stroke-width="2"/>
  <rect x="6" y="6" width="50" height="34" fill="#D0E8F7" rx="3"/>
  <rect x="6" y="6" width="50" height="3"  fill="#2E75B6" rx="1"/>
  <rect x="24" y="44" width="14" height="6" fill="#2E75B6" rx="2"/>
</g>
<g transform="translate(175,120)">
  <rect width="72" height="56" fill="#5B9BD5" rx="5" stroke="#2E75B6" stroke-width="2"/>
  <rect x="6" y="6" width="50" height="34" fill="#D0E8F7" rx="3"/>
  <rect x="6" y="6" width="50" height="3"  fill="#2E75B6" rx="1"/>
  <rect x="24" y="44" width="14" height="6" fill="#2E75B6" rx="2"/>
</g>
<g transform="translate(265,120)">
  <rect width="72" height="56" fill="#5B9BD5" rx="5" stroke="#2E75B6" stroke-width="2"/>
  <rect x="6" y="6" width="50" height="34" fill="#D0E8F7" rx="3"/>
  <rect x="6" y="6" width="50" height="3"  fill="#2E75B6" rx="1"/>
  <rect x="24" y="44" width="14" height="6" fill="#2E75B6" rx="2"/>
</g>
<g transform="translate(355,120)">
  <rect width="72" height="56" fill="#5B9BD5" rx="5" stroke="#2E75B6" stroke-width="2"/>
  <rect x="6" y="6" width="50" height="34" fill="#D0E8F7" rx="3"/>
  <rect x="6" y="6" width="50" height="3"  fill="#2E75B6" rx="1"/>
  <rect x="24" y="44" width="14" height="6" fill="#2E75B6" rx="2"/>
</g>
<!-- Linha 2: WK5-WK8 -->
<g transform="translate(85,210)">
  <rect width="72" height="56" fill="#5B9BD5" rx="5" stroke="#2E75B6" stroke-width="2"/>
  <rect x="6" y="6" width="50" height="34" fill="#D0E8F7" rx="3"/>
  <rect x="6" y="6" width="50" height="3"  fill="#2E75B6" rx="1"/>
  <rect x="24" y="44" width="14" height="6" fill="#2E75B6" rx="2"/>
</g>
<g transform="translate(175,210)">
  <rect width="72" height="56" fill="#5B9BD5" rx="5" stroke="#2E75B6" stroke-width="2"/>
  <rect x="6" y="6" width="50" height="34" fill="#D0E8F7" rx="3"/>
  <rect x="6" y="6" width="50" height="3"  fill="#2E75B6" rx="1"/>
  <rect x="24" y="44" width="14" height="6" fill="#2E75B6" rx="2"/>
</g>
<g transform="translate(265,210)">
  <rect width="72" height="56" fill="#5B9BD5" rx="5" stroke="#2E75B6" stroke-width="2"/>
  <rect x="6" y="6" width="50" height="34" fill="#D0E8F7" rx="3"/>
  <rect x="6" y="6" width="50" height="3"  fill="#2E75B6" rx="1"/>
  <rect x="24" y="44" width="14" height="6" fill="#2E75B6" rx="2"/>
</g>
<g transform="translate(355,210)">
  <rect width="72" height="56" fill="#5B9BD5" rx="5" stroke="#2E75B6" stroke-width="2"/>
  <rect x="6" y="6" width="50" height="34" fill="#D0E8F7" rx="3"/>
  <rect x="6" y="6" width="50" height="3"  fill="#2E75B6" rx="1"/>
  <rect x="24" y="44" width="14" height="6" fill="#2E75B6" rx="2"/>
</g>

<!-- CABO Cat6A fisico: canaleta teto (linha horizontal) -->
<line x1="80"  y1="92" x2="530" y2="92" stroke="#888" stroke-width="2.5"/>
<!-- drops: canaleta -> cada WK (linha 1) -->
<line x1="121" y1="92" x2="121" y2="148" stroke="#888" stroke-width="1.5"/>
<line x1="211" y1="92" x2="211" y2="148" stroke="#888" stroke-width="1.5"/>
<line x1="301" y1="92" x2="301" y2="148" stroke="#888" stroke-width="1.5"/>
<line x1="391" y1="92" x2="391" y2="148" stroke="#888" stroke-width="1.5"/>
<!-- drops: canaleta -> cada WK (linha 2) -->
<line x1="121" y1="92" x2="121" y2="238" stroke="#888" stroke-width="1.5"/>
<line x1="211" y1="92" x2="211" y2="238" stroke="#888" stroke-width="1.5"/>
<line x1="301" y1="92" x2="301" y2="238" stroke="#888" stroke-width="1.5"/>
<line x1="391" y1="92" x2="391" y2="238" stroke="#888" stroke-width="1.5"/>

<!-- CABO Cat6A PoE+: AP Wi-Fi -> teto -> rack -->
<line x1="310" y1="430" x2="310" y2="92"  stroke="#FF8C00" stroke-width="2"/>
<line x1="310" y1="92"  x2="530" y2="92"  stroke="#FF8C00" stroke-width="2"/>
<line x1="530" y1="92"  x2="530" y2="295" stroke="#FF8C00" stroke-width="2"/>

<!-- RACK AREA (parede leste) -->
<rect x="530" y="110" width="62" height="480" fill="#2C3E50" rx="4" stroke="#1A252F" stroke-width="2"/>
<!-- Servidores de analise -->
<rect x="536" y="132" width="50" height="34" fill="#FFC300" rx="2"/>
<rect x="536" y="132" width="50" height="6"  fill="#B8860B" rx="1"/>
<rect x="538" y="140" width="22" height="18" fill="#FFE88A" rx="1"/>
<rect x="564" y="140" width="8"  height="6"  fill="#B8860B" rx="1"/>
<rect x="564" y="150" width="8"  height="6"  fill="#CC0000" rx="1"/>

<rect x="536" y="180" width="50" height="34" fill="#FFC300" rx="2"/>
<rect x="536" y="180" width="50" height="6"  fill="#B8860B" rx="1"/>
<rect x="538" y="188" width="22" height="18" fill="#FFE88A" rx="1"/>
<rect x="564" y="188" width="8"  height="6"  fill="#B8860B" rx="1"/>
<rect x="564" y="198" width="8"  height="6"  fill="#CC0000" rx="1"/>

<rect x="536" y="228" width="50" height="34" fill="#FFC300" rx="2"/>
<rect x="536" y="228" width="50" height="6"  fill="#B8860B" rx="1"/>
<rect x="538" y="236" width="22" height="18" fill="#FFE88A" rx="1"/>
<rect x="564" y="236" width="8"  height="6"  fill="#B8860B" rx="1"/>
<rect x="564" y="246" width="8"  height="6"  fill="#CC0000" rx="1"/>

<!-- Switch -->
<rect x="536" y="276" width="50" height="26" fill="#1A5276" rx="2"/>
<rect x="538" y="279" width="10" height="8" fill="#AED6F1" rx="1"/>
<rect x="552" y="279" width="10" height="8" fill="#AED6F1" rx="1"/>
<rect x="566" y="279" width="10" height="8" fill="#2ECC71" rx="1"/>

<!-- TAP passivo -->
<rect x="536" y="318" width="50" height="26" fill="#17A589" rx="2"/>
<rect x="538" y="321" width="46" height="4" fill="#0E6655" rx="1"/>
<rect x="538" y="328" width="22" height="8" fill="#7DCEA0" rx="1"/>

<!-- IDS/NDR -->
<rect x="536" y="360" width="50" height="26" fill="#CB4335" rx="2"/>
<rect x="538" y="363" width="46" height="4" fill="#922B21" rx="1"/>
<rect x="538" y="370" width="22" height="8" fill="#F1948A" rx="1"/>

<!-- NAS Forense (armazenamento) -->
<rect x="536" y="402" width="50" height="34" fill="#7D3C98" rx="2"/>
<rect x="536" y="402" width="50" height="6" fill="#5B2C6F" rx="1"/>
<rect x="538" y="412" width="46" height="16" fill="#BB8FCE" rx="1"/>
<rect x="540" y="415" width="8"  height="4" fill="#5B2C6F" rx="1"/>
<rect x="552" y="415" width="8"  height="4" fill="#5B2C6F" rx="1"/>
<rect x="564" y="415" width="8"  height="4" fill="#5B2C6F" rx="1"/>

<!-- UPS -->
<rect x="536" y="450" width="50" height="26" fill="#5D6D7E" rx="2"/>
<rect x="538" y="453" width="22" height="16" fill="#AEB6BF" rx="1"/>
<rect x="564" y="456" width="8"  height="8"  fill="#ECF0F1" rx="1"/>

<!-- PP Cat6A -->
<rect x="536" y="482" width="50" height="14" fill="#3D3D3D" rx="1"/>
<circle cx="543" cy="489" r="3" fill="#ECF0F1"/>
<circle cx="553" cy="489" r="3" fill="#ECF0F1"/>
<circle cx="563" cy="489" r="3" fill="#2ECC71"/>
<circle cx="573" cy="489" r="3" fill="#E74C3C"/>

<!-- PONTO DE ACESSO WIFI -->
<circle cx="310" cy="430" r="30" fill="#2ECC71" stroke="#1A8A48" stroke-width="2.5"/>
<path d="M296,424 Q310,410 324,424" stroke="white" stroke-width="3.5" fill="none" stroke-linecap="round"/>
<path d="M289,417 Q310,400 331,417" stroke="white" stroke-width="3.5" fill="none" stroke-linecap="round"/>
<circle cx="310" cy="428" r="6" fill="white"/>

<!-- SERVIDORES SANDBOX (zona isolada) -->
<g transform="translate(160,610)">
  <rect width="76" height="58" fill="#E67E22" rx="5" stroke="#BA6010" stroke-width="2"/>
  <rect x="6" y="6" width="52" height="34" fill="#FAD7A0" rx="3"/>
  <rect x="6" y="6" width="52" height="4"  fill="#BA6010" rx="1"/>
  <rect x="24" y="44" width="14" height="8" fill="#BA6010" rx="2"/>
</g>
<g transform="translate(280,610)">
  <rect width="76" height="58" fill="#E74C3C" rx="5" stroke="#A93226" stroke-width="2"/>
  <rect x="6" y="6" width="52" height="34" fill="#FADBD8" rx="3"/>
  <rect x="6" y="6" width="52" height="4"  fill="#A93226" rx="1"/>
  <rect x="24" y="44" width="14" height="8" fill="#A93226" rx="2"/>
</g>

<!-- FIBRA OM4 (saindo pela parede leste para FD) -->
<line x1="598" y1="300" x2="620" y2="300" stroke="#1565C0" stroke-width="3"/>
<polygon points="616,297 624,300 616,303" fill="#1565C0"/>


<!-- ======================================================= -->
<!-- LEGENDA -->
<!-- ======================================================= -->
<rect x="650" y="68" width="530" height="860" fill="#F8F9FA" stroke="#CCC" stroke-width="1.2" rx="6"/>
<rect x="650" y="68" width="530" height="34" fill="#1A237E" rx="6"/>
<rect x="650" y="82" width="530" height="20" fill="#1A237E"/>
<text x="915" y="91" text-anchor="middle" font-size="12" fill="white" font-weight="bold">Legenda</text>

<!-- CAMERA -->
<rect x="670" y="118" width="34" height="26" fill="#27AE60" stroke="#1A7A40" stroke-width="1.5"/>
<text x="718" y="126" font-size="12" fill="#1A1A1A" font-weight="bold">C&#xE2;mera de Seguran&#xE7;a IP</text>
<text x="718" y="141" font-size="10" fill="#666">PoE &#xB7; VLAN Seguran&#xE7;a F&#xED;sica &#xB7; Cat6A</text>

<!-- TOMADA -->
<rect x="670" y="160" width="30" height="26" fill="#DEB887" rx="3" stroke="#B8860B" stroke-width="1.5"/>
<rect x="675" y="165" width="8"  height="8"  fill="#F5DEB3" rx="1"/>
<rect x="687" y="165" width="8"  height="8"  fill="#F5DEB3" rx="1"/>
<rect x="675" y="177" width="20" height="4"  fill="#B8860B" rx="1"/>
<text x="718" y="168" font-size="12" fill="#1A1A1A" font-weight="bold">Tomada RJ-45 Cat6A</text>
<text x="718" y="183" font-size="10" fill="#666">Faceplate &#xB7; ponto de rede por banca</text>

<!-- BANCADA -->
<rect x="670" y="202" width="44" height="34" fill="#5B9BD5" rx="4" stroke="#2E75B6" stroke-width="1.5"/>
<rect x="675" y="207" width="28" height="20" fill="#D0E8F7" rx="2"/>
<rect x="675" y="207" width="28" height="3"  fill="#2E75B6" rx="1"/>
<rect x="682" y="231" width="8"  height="4"  fill="#2E75B6" rx="1"/>
<text x="718" y="212" font-size="12" fill="#1A1A1A" font-weight="bold">Bancada (Workstation)</text>
<text x="718" y="227" font-size="10" fill="#666">8 unidades &#xB7; Cat6A 10G &#xB7; VLAN Ciberseg.</text>

<!-- SERVIDOR (analise) -->
<rect x="670" y="252" width="44" height="34" fill="#FFC300" rx="4" stroke="#B8860B" stroke-width="1.5"/>
<rect x="670" y="252" width="44" height="6"  fill="#B8860B" rx="2"/>
<rect x="674" y="261" width="18" height="16" fill="#FFE88A" rx="1"/>
<rect x="696" y="261" width="8"  height="6"  fill="#B8860B" rx="1"/>
<rect x="696" y="271" width="8"  height="6"  fill="#CC0000" rx="1"/>
<text x="718" y="262" font-size="12" fill="#1A1A1A" font-weight="bold">Servidor de An&#xE1;lise</text>
<text x="718" y="277" font-size="10" fill="#666">3 unidades &#xB7; SIEM, forense, correla&#xE7;&#xE3;o &#xB7; Cat6A 10G</text>

<!-- CONTROLE DE ACESSO -->
<rect x="670" y="302" width="30" height="24" fill="#E74C3C" stroke="#A93226" stroke-width="1.5"/>
<rect x="678" y="308" width="14" height="12" fill="#222"/>
<text x="718" y="312" font-size="12" fill="#1A1A1A" font-weight="bold">Controle de Acesso</text>
<text x="718" y="327" font-size="10" fill="#666">Leitor bim&#xE9;trico na porta &#xB7; Cat6A</text>

<!-- ARMAZENAMENTO -->
<rect x="670" y="348" width="44" height="34" fill="#7D3C98" rx="4" stroke="#5B2C6F" stroke-width="1.5"/>
<rect x="670" y="348" width="44" height="6"  fill="#5B2C6F" rx="2"/>
<rect x="674" y="357" width="36" height="16" fill="#BB8FCE" rx="1"/>
<rect x="676" y="360" width="8"  height="4"  fill="#5B2C6F" rx="1"/>
<rect x="688" y="360" width="8"  height="4"  fill="#5B2C6F" rx="1"/>
<rect x="700" y="360" width="6"  height="4"  fill="#5B2C6F" rx="1"/>
<text x="718" y="358" font-size="12" fill="#1A1A1A" font-weight="bold">Armazenamento (NAS Forense)</text>
<text x="718" y="373" font-size="10" fill="#666">pcaps, logs, evid&#xEA;ncias &#xB7; VLAN Gest&#xE3;o</text>

<!-- PONTO DE ACESSO WIFI -->
<circle cx="692" cy="420" r="22" fill="#2ECC71" stroke="#1A8A48" stroke-width="2"/>
<path d="M682,416 Q692,405 702,416" stroke="white" stroke-width="3" fill="none" stroke-linecap="round"/>
<path d="M676,410 Q692,396 708,410" stroke="white" stroke-width="3" fill="none" stroke-linecap="round"/>
<circle cx="692" cy="419" r="5" fill="white"/>
<text x="718" y="413" font-size="12" fill="#1A1A1A" font-weight="bold">Ponto de Acesso Wi-Fi 6</text>
<text x="718" y="428" font-size="10" fill="#666">PoE+ &#xB7; VLAN isolada (admin only)</text>

<!-- TAP PASSIVO (adicional) -->
<rect x="670" y="452" width="44" height="26" fill="#17A589" rx="4" stroke="#0E6655" stroke-width="1.5"/>
<rect x="674" y="456" width="36" height="4"  fill="#0E6655" rx="1"/>
<rect x="674" y="463" width="16" height="8"  fill="#7DCEA0" rx="1"/>
<text x="718" y="462" font-size="12" fill="#1A1A1A" font-weight="bold">TAP de Rede Passivo</text>
<text x="718" y="477" font-size="10" fill="#666">Espelha tr&#xE1;fego dos labs &#x2014; sem impacto no fluxo</text>

<!-- IDS/NDR -->
<rect x="670" y="492" width="44" height="26" fill="#CB4335" rx="4" stroke="#922B21" stroke-width="1.5"/>
<rect x="674" y="496" width="36" height="4"  fill="#922B21" rx="1"/>
<rect x="674" y="503" width="16" height="8"  fill="#F1948A" rx="1"/>
<text x="718" y="502" font-size="12" fill="#1A1A1A" font-weight="bold">IDS / NDR (appliance)</text>
<text x="718" y="517" font-size="10" fill="#666">Recebe tr&#xE1;fego do TAP &#xB7; detec&#xE7;&#xE3;o de anomalias</text>

<!-- SERVIDOR SANDBOX -->
<rect x="670" y="534" width="44" height="34" fill="#E67E22" rx="4" stroke="#BA6010" stroke-width="1.5"/>
<rect x="670" y="534" width="44" height="6"  fill="#BA6010" rx="2"/>
<rect x="674" y="543" width="28" height="16" fill="#FAD7A0" rx="1"/>
<rect x="706" y="543" width="6"  height="16" fill="#BA6010" rx="1"/>
<text x="718" y="544" font-size="12" fill="#1A1A1A" font-weight="bold">Servidor Sandbox</text>
<text x="718" y="559" font-size="10" fill="#666">Ambiente isolado &#xB7; execu&#xE7;&#xE3;o de malware</text>

<!-- HONEYPOT -->
<rect x="670" y="584" width="44" height="34" fill="#E74C3C" rx="4" stroke="#A93226" stroke-width="1.5"/>
<rect x="670" y="584" width="44" height="6"  fill="#A93226" rx="2"/>
<rect x="674" y="593" width="28" height="16" fill="#FADBD8" rx="1"/>
<rect x="706" y="593" width="6"  height="16" fill="#A93226" rx="1"/>
<text x="718" y="594" font-size="12" fill="#1A1A1A" font-weight="bold">Honeypot</text>
<text x="718" y="609" font-size="10" fill="#666">Isca de ataques &#xB7; coleta de comportamento</text>

<!-- RACK -->
<rect x="670" y="634" width="18" height="34" fill="#2C3E50" rx="3" stroke="#1A252F" stroke-width="1.5"/>
<rect x="672" y="636" width="14" height="30" fill="#4A5568" rx="2"/>
<rect x="674" y="638" width="10" height="5" fill="#FFC300" rx="1"/>
<rect x="674" y="645" width="10" height="5" fill="#17A589" rx="1"/>
<rect x="674" y="652" width="10" height="5" fill="#7D3C98" rx="1"/>
<text x="718" y="644" font-size="12" fill="#1A1A1A" font-weight="bold">Rack 19&#x22; 24U</text>
<text x="718" y="659" font-size="10" fill="#666">Concentra todo o equipamento ativo e passivo</text>

<!-- ZONA SANDBOX legenda -->
<rect x="670" y="686" width="44" height="30" fill="#FFE8E8" stroke="#E74C3C" stroke-width="2" stroke-dasharray="8,5" rx="3"/>
<text x="692" y="705" text-anchor="middle" font-size="8" fill="#C0392B">ZONA</text>
<text x="718" y="696" font-size="12" fill="#1A1A1A" font-weight="bold">Zona Sandbox (rede isolada)</text>
<text x="718" y="711" font-size="10" fill="#666">Sandbox + Honeypot &#xB7; sem rota para rede principal</text>

<!-- CANALETA PERIMETRAL -->
<rect x="670" y="732" width="44" height="16" fill="none" stroke="#E53935" stroke-width="2.5" stroke-dasharray="8,5"/>
<text x="718" y="744" font-size="12" fill="#1A1A1A" font-weight="bold">Canaleta PVC perimetral (parede)</text>
<text x="718" y="758" font-size="10" fill="#666">Delimita&#xE7;&#xE3;o da &#xE1;rea de cabeamento horizontal</text>

<!-- CABO Cat6A WK -->
<line x1="670" y1="775" x2="714" y2="775" stroke="#888" stroke-width="2.5"/>
<text x="718" y="779" font-size="12" fill="#1A1A1A" font-weight="bold">Cabo Cat6A U/FTP (rack &#x2192; WK)</text>
<text x="718" y="793" font-size="10" fill="#666">Corre pelo teto &#xB7; drop descendo at&#xE9; cada bancada</text>

<!-- CABO PoE+ AP -->
<line x1="670" y1="808" x2="714" y2="808" stroke="#FF8C00" stroke-width="2.5"/>
<text x="718" y="812" font-size="12" fill="#1A1A1A" font-weight="bold">Cabo Cat6A PoE+ (rack &#x2192; AP)</text>
<text x="718" y="826" font-size="10" fill="#666">Sobe ao teto &#xB7; 1 cabo = dados + alimenta&#xE7;&#xE3;o el&#xE9;trica</text>

<!-- FIBRA OM4 -->
<line x1="670" y1="845" x2="710" y2="845" stroke="#1565C0" stroke-width="2.5"/>
<polygon points="706,842 714,845 706,848" fill="#1565C0"/>
<text x="718" y="849" font-size="12" fill="#1A1A1A" font-weight="bold">Fibra OM4 10 Gb/s &#x2192; FD</text>
<text x="718" y="863" font-size="10" fill="#666">Backbone vertical &#xB7; rack lab &#x2192; FD 2&#xBA; andar</text>


</svg>
